<?xml version="1.0" encoding="utf-8"?>
<!-- Generator: Adobe Illustrator 24.2.0, SVG Export Plug-In . SVG Version: 6.00 Build 0)  -->
<svg version="1.1" id="Layer_1" focusable="false" xmlns="http://www.w3.org/2000/svg" xmlns:xlink="http://www.w3.org/1999/xlink"
	 x="0px" y="0px" viewBox="0 0 448 595" style="enable-background:new 0 0 448 595;" xml:space="preserve">
<style type="text/css">
	.st0{fill:#4A4C53;}
</style>
<path class="st0" d="M224,377.1c70.7,0,128-57.3,128-128s-57.3-128-128-128s-128,57.3-128,128S153.3,377.1,224,377.1z M313.6,409.1
	h-16.7c-22.2,10.2-46.9,16-72.9,16s-50.6-5.8-72.9-16h-16.7C60.2,409.1,0,469.3,0,543.5v41.6c0,26.5,21.5,48,48,48h352
	c26.5,0,48-21.5,48-48v-41.6C448,469.3,387.8,409.1,313.6,409.1z"/>
</svg>
